<?xml version="1.0" standalone="no"?>
<!DOCTYPE svg PUBLIC "-//W3C//DTD SVG 20010904//EN"
 "http://www.w3.org/TR/2001/REC-SVG-20010904/DTD/svg10.dtd">
<svg version="1.0" xmlns="http://www.w3.org/2000/svg"
 width="934.000000pt" height="1707.000000pt" viewBox="0 0 934.000000 1707.000000"
 preserveAspectRatio="xMidYMid meet">

<g transform="translate(0.000000,1707.000000) scale(0.100000,-0.100000)"
fill="#000000" stroke="none">
<path d="M6237 16626 c-334 -238 -612 -437 -616 -442 -7 -6 -62 -1728 -61
-1890 0 -18 11 -23 83 -38 125 -27 260 -73 380 -129 59 -27 106 -52 104 -54
-3 -2 -39 11 -82 28 -43 17 -121 42 -174 55 -102 26 -297 52 -308 41 -3 -4
-14 -296 -24 -649 -9 -354 -20 -718 -23 -809 l-6 -166 59 -6 c59 -5 148 -39
186 -72 l20 -17 -20 7 c-70 24 -230 10 -241 -20 -4 -11 -43 -1256 -39 -1262 0
-1 36 145 78 325 42 180 138 586 212 902 75 316 178 753 230 970 344 1459 554
2351 730 3095 58 248 112 476 120 508 7 31 10 57 7 56 -4 0 -281 -195 -615
-433z"/>
<path d="M5294 16637 c-11 -14 -234 -275 -496 -580 l-478 -556 106 -478 c57
-263 126 -575 151 -693 26 -118 49 -219 53 -223 4 -4 42 10 86 31 164 82 354
134 542 148 l93 7 -6 136 c-3 75 -10 606 -16 1181 -6 575 -13 1046 -14 1048
-1 2 -11 -8 -21 -21z"/>
<path d="M3631 14982 l-341 -681 262 -525 262 -525 48 75 c131 205 353 463
501 583 l63 51 -112 428 c-61 235 -160 612 -219 837 -59 226 -111 416 -115
424 -4 8 -132 -236 -349 -667z"/>
<path d="M2916 14270 c-3 -8 -62 -267 -131 -575 -69 -308 -143 -636 -164 -730
l-38 -170 86 -101 c448 -528 643 -755 646 -752 1 2 12 53 24 113 51 256 132
508 240 752 l68 153 -349 637 c-192 351 -356 649 -363 663 -10 19 -15 22 -19
10z"/>
<path d="M5215 14165 c-105 -24 -244 -74 -336 -120 -56 -29 -209 -124 -209
-131 0 -2 38 -178 85 -391 47 -214 113 -512 146 -663 108 -489 129 -583 133
-587 2 -2 25 22 52 53 58 69 174 163 239 194 l47 23 -6 246 c-3 135 -9 506
-12 824 -6 523 -8 577 -23 576 -9 0 -61 -11 -116 -24z"/>
<path d="M4383 13668 c-144 -146 -239 -266 -372 -466 -44 -68 -84 -134 -87
-146 -3 -15 99 -231 359 -754 201 -404 367 -730 370 -725 3 4 21 48 41 96 45
108 111 240 171 342 25 42 45 83 45 91 0 8 -30 128 -66 267 -37 138 -113 428
-169 642 -56 215 -122 464 -145 555 -24 91 -46 171 -49 178 -5 8 -39 -20 -98
-80z"/>
<path d="M3702 12613 c-99 -252 -163 -501 -197 -762 l-16 -121 203 -238 c111
-130 268 -314 348 -408 80 -94 210 -248 290 -341 l145 -170 12 177 c12 191 21
266 54 432 l21 107 -397 726 c-218 399 -401 725 -405 725 -5 0 -31 -57 -58
-127z"/>
<path d="M2274 12450 c3 -113 11 -456 18 -763 l12 -557 565 -405 c310 -223
566 -404 567 -402 1 1 -11 52 -27 112 -81 306 -119 575 -126 896 l-6 236 -40
44 c-22 24 -119 130 -216 234 -252 273 -372 403 -391 425 -27 31 -251 271
-308 330 l-54 55 6 -205z"/>
<path d="M5279 12303 c-70 -72 -142 -161 -183 -224 -16 -26 -13 -43 110 -600
69 -316 139 -630 155 -699 l29 -125 -5 510 c-7 747 -17 1215 -25 1215 -3 0
-40 -35 -81 -77z"/>
<path d="M4963 11859 c-33 -41 -157 -320 -197 -445 l-16 -50 380 -765 c210
-420 379 -757 376 -748 -2 9 -119 454 -260 990 -141 536 -260 987 -264 1003
-6 22 -10 25 -19 15z"/>
<path d="M3484 11209 c16 -304 88 -701 183 -1011 l18 -58 504 -360 c277 -198
506 -359 507 -357 2 2 -12 53 -31 113 -62 192 -132 495 -157 680 -2 12 -100
126 -218 254 -118 128 -224 243 -235 255 -106 118 -569 615 -573 615 -3 0 -2
-59 2 -131z"/>
<path d="M4676 11049 c-19 -83 -28 -204 -33 -420 l-6 -246 59 -69 c58 -69 337
-397 828 -974 142 -168 266 -312 274 -320 8 -8 -1 14 -21 50 -907 1660 -1096
2001 -1101 1979z"/>
<path d="M2056 10828 c14 -51 105 -383 202 -738 l178 -645 874 -346 c481 -190
876 -345 878 -344 2 1 -31 55 -73 119 -169 259 -361 619 -479 900 l-54 130
-199 130 c-429 283 -1317 866 -1340 879 -7 4 -2 -29 13 -85z"/>
<path d="M4692 9993 c44 -224 156 -646 186 -698 4 -8 304 -226 667 -486 363
-260 691 -494 729 -521 74 -54 71 -43 -14 49 -56 61 -235 254 -285 308 -233
253 -497 538 -600 650 -71 77 -177 192 -235 255 -58 63 -137 148 -176 190 -39
41 -117 126 -174 188 -56 61 -104 112 -105 112 -1 0 2 -21 7 -47z"/>
<path d="M3830 9737 c0 -17 144 -335 222 -492 96 -192 141 -274 246 -451 l65
-112 401 -158 c221 -87 416 -164 435 -172 l34 -14 -19 29 c-57 86 -198 343
-283 516 l-96 197 -490 322 c-269 177 -496 326 -502 331 -7 5 -13 7 -13 4z"/>
<path d="M2248 9127 c17 -29 226 -404 465 -834 l435 -782 -31 -6 c-18 -3 -108
-16 -202 -30 -374 -56 -821 -147 -1280 -261 -228 -57 -264 -66 -530 -140 -317
-89 -1012 -311 -1002 -320 2 -2 107 19 233 46 1580 351 3197 543 4194 501 577
-25 964 -86 1885 -300 775 -180 1115 -236 1576 -262 580 -32 999 88 1272 364
38 38 67 71 64 73 -2 3 -58 -4 -123 -15 -203 -34 -341 -45 -559 -45 -219 1
-332 10 -523 46 -124 22 -263 68 -1487 493 -137 48 -261 91 -275 95 -14 4
-144 49 -290 100 -366 127 -583 200 -586 197 -3 -3 253 -384 312 -464 25 -35
44 -63 41 -63 -10 0 -184 216 -291 360 -59 80 -119 159 -134 177 -24 27 -69
45 -382 153 -195 67 -379 130 -407 140 -29 11 -53 17 -53 14 0 -20 320 -449
468 -626 40 -49 70 -88 66 -88 -9 0 -223 224 -329 345 -48 55 -146 172 -217
261 l-128 161 -153 52 c-256 88 -451 156 -712 246 -137 48 -392 135 -565 195
-173 59 -420 144 -548 189 l-233 80 29 -52z"/>
<path d="M5010 8957 c0 -28 284 -601 319 -644 9 -11 87 -48 176 -83 88 -34
444 -175 790 -312 709 -281 755 -299 755 -294 0 2 -113 77 -250 167 -138 90
-414 272 -615 404 -684 450 -1157 760 -1166 763 -5 2 -9 1 -9 -1z"/>
<path d="M3727 6142 c-53 -3 -57 -4 -52 -25 4 -14 -48 -166 -145 -427 -175
-473 -174 -470 -197 -470 -40 0 -137 104 -320 344 -78 102 -90 123 -79 136 7
8 58 69 113 136 130 155 191 210 256 229 28 8 57 15 64 15 7 0 13 9 13 20 0
19 -7 20 -190 20 -183 0 -190 -1 -190 -20 0 -16 7 -20 34 -20 101 0 90 -43
-55 -210 -27 -30 -61 -70 -77 -88 l-28 -34 -110 132 c-60 72 -113 141 -118
152 -12 25 3 36 67 44 37 5 47 11 47 25 0 18 -12 19 -240 19 -229 0 -240 -1
-240 -19 0 -15 10 -20 53 -26 102 -14 126 -34 314 -268 122 -151 134 -170 121
-185 -8 -9 -72 -86 -142 -169 -178 -214 -204 -234 -318 -258 -19 -4 -28 -12
-28 -25 0 -19 7 -20 195 -20 185 0 195 1 195 19 0 15 -10 20 -49 26 -65 9 -79
25 -55 64 17 26 176 218 244 293 l25 28 120 -146 c172 -209 178 -225 95 -238
-31 -5 -40 -11 -40 -26 0 -20 7 -20 300 -20 287 0 300 1 300 19 0 15 -10 20
-57 26 -76 9 -93 19 -92 53 0 15 26 95 58 177 l57 150 150 3 c113 2 154 -1
161 -10 12 -16 123 -318 123 -335 0 -19 -34 -33 -100 -40 -50 -5 -60 -9 -60
-24 0 -18 12 -19 220 -19 212 0 220 1 220 20 0 14 -9 21 -37 26 -50 9 -70 20
-85 47 -6 12 -87 217 -178 456 -128 332 -171 436 -186 440 -10 3 -45 5 -77 3z
m63 -314 c29 -79 55 -149 58 -155 3 -10 -25 -13 -118 -13 -67 0 -120 4 -118 9
2 4 28 74 58 155 30 80 57 146 60 146 4 0 30 -64 60 -142z"/>
<path d="M437 6093 c-4 -27 -10 -85 -13 -130 -7 -80 -6 -83 15 -83 11 0 21 6
21 13 0 31 31 114 50 135 20 21 29 22 170 22 l150 0 0 -389 c0 -223 -4 -400
-10 -415 -12 -33 -37 -45 -110 -53 -50 -5 -60 -9 -60 -24 0 -18 13 -19 250
-19 237 0 250 1 250 19 0 15 -10 19 -60 24 -34 4 -69 11 -79 17 -37 19 -41 61
-41 456 l0 384 150 0 c146 0 152 -1 175 -24 15 -15 28 -46 36 -85 12 -54 16
-61 37 -61 17 0 22 4 18 18 -2 9 -7 53 -11 97 -10 132 -14 145 -41 145 -12 0
-26 -4 -29 -10 -4 -6 -150 -10 -405 -10 -255 0 -401 4 -405 10 -3 6 -17 10
-29 10 -20 0 -24 -6 -29 -47z"/>
<path d="M4490 6131 c-104 -32 -180 -125 -180 -220 0 -110 63 -180 292 -325
112 -70 193 -146 204 -191 3 -14 4 -42 1 -62 -26 -159 -262 -202 -388 -70 -34
35 -69 97 -69 122 0 10 -9 15 -26 15 -22 0 -25 -4 -21 -22 3 -13 11 -67 18
-122 13 -102 24 -120 59 -99 12 8 38 6 96 -8 193 -46 343 -6 425 114 28 41 34
60 37 118 7 126 -44 191 -261 333 -213 139 -263 206 -221 292 11 21 31 47 46
58 34 24 131 33 181 17 55 -18 121 -74 148 -125 14 -28 31 -46 41 -46 22 0 22
15 6 128 l-11 84 -43 -7 c-28 -4 -62 0 -95 9 -55 17 -194 20 -239 7z"/>
<path d="M5895 6121 c7 -22 -295 -840 -327 -883 -10 -15 -31 -30 -46 -34 -15
-3 -37 -7 -49 -10 -15 -3 -23 -12 -23 -24 0 -19 7 -20 185 -20 176 0 185 1
185 19 0 16 -10 21 -55 26 -31 4 -65 15 -77 25 l-22 17 54 144 c29 79 59 156
67 172 l14 28 152 -3 151 -3 57 -150 c60 -155 70 -209 44 -219 -8 -3 -44 -8
-80 -12 -54 -6 -65 -10 -65 -25 0 -18 12 -19 225 -19 218 0 225 1 225 20 0 15
-9 21 -41 26 -23 4 -52 16 -65 28 -16 14 -52 96 -108 241 -155 406 -245 640
-251 658 -6 14 -20 17 -82 17 -68 0 -74 -2 -68 -19z m114 -298 c27 -70 53
-136 56 -145 7 -17 -3 -18 -115 -18 -93 0 -121 3 -118 13 83 231 114 305 120
293 4 -8 30 -72 57 -143z"/>
<path d="M1420 6100 c0 -16 7 -20 38 -20 56 0 104 -29 114 -68 5 -18 7 -197 6
-398 l-3 -366 -27 -23 c-20 -17 -46 -25 -93 -30 -55 -6 -65 -10 -65 -26 0 -18
15 -19 420 -19 329 0 420 3 420 13 1 6 7 60 14 120 12 105 12 107 -8 107 -16
0 -27 -15 -46 -62 -40 -98 -50 -102 -253 -106 -139 -3 -176 0 -192 12 -19 13
-20 28 -23 200 l-3 186 143 0 c171 0 187 -6 206 -73 10 -35 18 -47 33 -47 18
0 19 8 19 150 0 142 -1 150 -20 150 -14 0 -22 -11 -30 -42 -6 -24 -19 -49 -28
-55 -11 -9 -62 -13 -169 -13 l-153 0 0 180 0 180 180 0 c177 0 181 -1 204 -23
14 -14 29 -48 37 -80 9 -44 16 -57 31 -57 16 0 18 9 18 69 0 37 -3 89 -6 115
l-7 46 -378 0 c-372 0 -379 0 -379 -20z"/>
<path d="M7490 6101 c0 -13 10 -20 32 -25 51 -10 58 -22 58 -100 0 -126 -40
-690 -51 -724 -12 -36 -27 -46 -81 -56 -29 -5 -38 -12 -38 -26 0 -19 8 -20
170 -20 163 0 170 1 170 20 0 13 -9 22 -27 26 -16 3 -39 9 -53 13 -49 15 -50
30 -29 376 10 176 21 327 23 335 1 8 90 -162 197 -378 179 -364 195 -393 217
-390 25 3 55 62 353 697 21 46 41 82 44 80 6 -6 45 -551 45 -628 0 -52 -3 -62
-26 -80 -15 -12 -37 -21 -50 -21 -35 0 -54 -11 -54 -31 0 -18 11 -19 205 -19
193 0 205 1 205 19 0 14 -11 20 -52 27 -42 7 -55 14 -65 35 -15 32 -72 803
-61 824 5 7 29 17 53 21 35 5 45 10 45 25 0 18 -9 19 -122 19 l-123 0 -179
-373 c-98 -204 -182 -375 -185 -379 -3 -4 -89 164 -190 373 l-184 379 -123 0
c-115 0 -124 -1 -124 -19z"/>
<path d="M6725 5961 c-114 -51 -136 -181 -51 -293 l35 -45 -52 -21 c-114 -48
-168 -123 -169 -236 0 -83 14 -124 60 -169 72 -70 184 -87 281 -42 30 14 83
46 117 70 l63 45 33 -46 c73 -101 164 -120 287 -58 66 33 70 37 60 57 -7 12
-13 23 -14 25 -1 1 -23 -7 -49 -18 -45 -20 -47 -20 -77 -3 -16 10 -52 50 -80
90 l-50 73 45 59 c25 32 68 96 96 142 28 46 58 90 67 97 9 6 36 12 60 12 39 0
43 2 43 25 l0 25 -130 0 -130 0 0 -25 c0 -22 4 -25 34 -25 19 0 38 -5 41 -10
7 -11 -47 -105 -111 -192 l-42 -58 -52 66 c-29 36 -72 86 -96 109 l-44 44 44
30 c83 58 110 145 66 216 -43 70 -191 99 -285 56z m135 -31 c22 -12 40 -60 40
-107 0 -35 -24 -98 -42 -109 -17 -11 -76 46 -93 90 -34 88 24 164 95 126z m89
-564 l31 -44 -31 -27 c-111 -92 -237 -86 -290 15 -39 73 -14 178 59 241 l36
32 82 -86 c46 -48 96 -107 113 -131z"/>
<path d="M6080 4775 c-87 -27 -160 -116 -160 -194 0 -104 60 -177 244 -299
152 -100 200 -145 217 -202 11 -35 10 -47 -7 -88 -45 -108 -201 -143 -311 -70
-39 27 -92 100 -100 141 -4 20 -11 27 -30 27 -18 0 -23 -4 -19 -17 2 -10 10
-64 17 -120 13 -107 18 -115 58 -94 12 7 41 3 91 -10 184 -48 337 1 403 130
44 89 33 177 -33 261 -20 25 -90 79 -174 135 -160 105 -212 153 -227 208 -20
75 40 146 130 155 91 8 177 -38 227 -124 15 -25 33 -44 43 -44 16 0 17 6 10
53 -4 28 -10 73 -14 100 -5 37 -10 47 -25 47 -10 0 -21 -4 -24 -9 -3 -5 -38 0
-78 10 -83 22 -174 23 -238 4z"/>
<path d="M5043 4763 c-83 -3 -93 -6 -93 -22 0 -15 10 -21 49 -26 92 -13 86 18
86 -414 0 -433 5 -410 -84 -419 -41 -4 -51 -8 -51 -23 0 -18 12 -19 215 -19
204 0 215 1 215 19 0 15 -10 19 -57 23 -88 8 -93 19 -93 194 l0 144 94 0 95 0
81 -134 c46 -78 97 -149 119 -168 51 -43 119 -68 209 -75 69 -6 72 -5 72 16 0
16 -6 21 -25 21 -31 0 -94 31 -128 62 -13 13 -65 90 -115 172 l-91 150 48 27
c89 51 131 122 131 222 0 122 -88 209 -249 243 -63 13 -190 15 -428 7z m411
-66 c78 -36 116 -101 116 -200 0 -155 -94 -237 -272 -237 l-68 0 0 236 0 237
86 -6 c59 -4 102 -14 138 -30z"/>
<path d="M6925 4728 c-3 -24 -9 -80 -13 -125 -8 -82 -8 -83 15 -83 15 0 23 6
23 18 0 37 23 96 45 118 23 23 30 24 160 24 l136 0 -3 -385 c-3 -445 4 -416
-103 -423 -56 -4 -65 -7 -65 -23 0 -18 12 -19 235 -19 228 0 235 1 235 20 0
17 -7 20 -50 20 -68 0 -98 16 -111 59 -6 23 -9 166 -7 391 l3 355 134 3 c126
2 135 1 157 -19 22 -21 35 -49 48 -111 4 -19 13 -28 26 -28 18 0 20 5 14 53
-3 28 -9 84 -12 122 -6 63 -9 70 -29 73 -13 2 -23 -1 -23 -7 0 -15 -756 -15
-765 -1 -3 6 -15 10 -25 10 -14 0 -20 -10 -25 -42z"/>
<path d="M410 4735 c0 -22 4 -25 39 -25 23 0 48 -8 62 -19 l24 -19 5 -299 c5
-285 6 -300 28 -344 39 -78 87 -125 168 -166 72 -35 82 -37 193 -41 66 -2 141
1 169 7 122 26 213 94 264 199 l33 66 5 276 c4 201 9 281 18 298 14 25 50 42
88 42 19 0 24 5 24 25 l0 25 -175 0 -175 0 0 -25 c0 -22 5 -25 33 -25 48 0 81
-21 94 -60 8 -23 12 -114 12 -261 1 -279 -10 -329 -87 -401 -61 -57 -126 -80
-230 -80 -118 -1 -184 22 -246 85 -77 77 -81 99 -81 415 l0 264 24 19 c14 11
39 19 62 19 35 0 39 3 39 25 l0 25 -195 0 -195 0 0 -25z"/>
<path d="M1560 4735 c0 -20 5 -25 25 -25 14 0 41 -7 60 -14 l35 -15 0 -370 c0
-203 -3 -377 -6 -386 -8 -20 -56 -45 -87 -45 -16 0 -26 -7 -30 -20 -5 -19 0
-20 174 -20 172 0 179 1 179 20 0 16 -7 20 -34 20 -52 0 -93 19 -105 48 -8 18
-10 130 -9 350 l3 323 134 -143 c74 -79 234 -246 355 -371 122 -126 225 -235
229 -243 4 -8 21 -14 37 -14 l30 0 0 424 0 425 22 15 c12 9 42 16 65 16 39 0
43 2 43 25 l0 25 -175 0 -175 0 0 -25 c0 -23 4 -25 45 -25 35 0 52 -6 70 -25
l25 -24 0 -303 -1 -303 -77 81 c-42 45 -169 178 -282 295 -112 118 -229 240
-259 272 l-55 57 -118 0 -118 0 0 -25z"/>
<path d="M2710 4735 c0 -21 5 -25 30 -25 19 0 40 -9 55 -25 l25 -24 0 -358 c0
-266 -4 -364 -13 -383 -9 -18 -25 -28 -55 -34 -30 -7 -42 -15 -42 -28 0 -17
13 -18 185 -18 174 0 185 1 185 19 0 14 -10 20 -42 24 -80 11 -78 0 -78 416
l0 368 23 21 c15 14 36 22 60 22 33 0 37 3 37 25 l0 25 -185 0 -185 0 0 -25z"/>
<path d="M3110 4735 c0 -22 4 -25 36 -25 27 0 43 -7 61 -27 15 -17 92 -194
192 -443 l166 -415 45 -3 45 -3 115 298 c194 506 207 536 240 566 19 17 42 27
60 27 25 0 30 4 30 25 l0 25 -175 0 -175 0 0 -25 c0 -23 3 -25 50 -25 59 0 95
-27 85 -63 -15 -57 -239 -637 -245 -637 -12 0 -261 631 -258 653 4 28 42 47
96 47 38 0 42 2 42 25 l0 25 -205 0 -205 0 0 -25z"/>
<path d="M4140 4735 c0 -23 3 -25 50 -25 37 0 55 -5 70 -20 19 -19 20 -33 20
-389 0 -434 6 -410 -103 -418 -57 -5 -67 -9 -67 -24 0 -18 16 -19 390 -19 215
0 390 1 391 3 0 1 6 53 13 115 12 111 12 112 -9 112 -16 0 -24 -10 -35 -47 -7
-27 -28 -62 -45 -80 -38 -38 -93 -47 -256 -41 -95 3 -113 6 -125 23 -11 14
-14 58 -14 187 l0 168 138 0 c156 0 174 -7 186 -74 5 -27 12 -36 26 -36 19 0
20 8 20 140 0 131 -1 140 -19 140 -12 0 -21 -10 -26 -27 -3 -16 -13 -38 -21
-50 -14 -22 -20 -23 -159 -23 l-145 0 0 170 0 170 164 0 164 0 25 -30 c25 -30
29 -38 41 -92 5 -20 13 -28 28 -28 19 0 20 4 14 53 -3 28 -6 78 -6 110 l0 57
-355 0 -355 0 0 -25z"/>
<path d="M6530 4735 c0 -21 5 -25 30 -25 43 0 67 -29 75 -92 4 -29 5 -195 3
-369 -3 -294 -4 -318 -22 -338 -10 -11 -34 -23 -52 -27 -24 -4 -34 -12 -34
-25 0 -18 10 -19 180 -19 173 0 180 1 180 20 0 15 -7 20 -25 20 -38 0 -82 26
-89 52 -3 13 -6 182 -6 376 l0 353 25 24 c16 17 35 25 60 25 31 0 35 3 35 25
l0 25 -180 0 -180 0 0 -25z"/>
<path d="M7820 4735 c0 -21 5 -25 29 -25 81 0 104 -25 286 -311 l147 -229 -4
-120 c-4 -143 -13 -160 -97 -168 -41 -4 -51 -8 -51 -23 0 -18 11 -19 210 -19
203 0 210 1 210 20 0 16 -7 20 -35 20 -46 0 -80 17 -94 47 -6 13 -11 78 -11
146 l0 122 138 230 c145 244 167 269 244 281 32 6 38 11 38 30 l0 24 -170 0
-170 0 0 -25 c0 -22 4 -25 33 -25 18 0 42 -6 52 -14 17 -12 18 -17 6 -42 -17
-39 -191 -336 -206 -352 -10 -11 -36 24 -130 170 -65 100 -120 191 -123 201
-6 25 14 37 61 37 33 0 37 3 37 25 l0 25 -200 0 -200 0 0 -25z"/>
<path d="M1185 3443 c-390 -35 -663 -249 -751 -588 -24 -95 -25 -294 -1 -385
76 -285 296 -483 608 -546 115 -23 368 -15 489 16 47 12 120 24 163 27 l78 6
33 61 c30 55 93 205 111 264 5 19 3 22 -22 22 -24 0 -37 -12 -82 -74 -62 -87
-98 -121 -183 -177 -97 -62 -180 -84 -323 -84 -146 0 -230 23 -339 95 -202
132 -316 357 -316 625 0 313 151 548 410 635 82 28 244 38 332 21 158 -31 316
-149 379 -285 28 -60 34 -66 61 -66 26 0 29 3 25 23 -3 12 -9 91 -13 175 -3
84 -11 155 -16 158 -6 4 -27 1 -47 -6 -32 -10 -46 -8 -126 18 -153 51 -341 77
-470 65z"/>
<path d="M2665 3439 c-336 -35 -600 -235 -700 -529 -71 -210 -52 -443 52 -619
107 -180 319 -321 552 -365 96 -18 290 -21 376 -5 329 61 589 315 651 636 65
341 -90 643 -409 798 -108 51 -179 71 -308 85 -104 11 -102 11 -214 -1z m258
-98 c100 -35 175 -81 247 -153 58 -57 80 -88 120 -171 64 -133 85 -228 84
-382 -1 -146 -18 -224 -80 -353 -95 -197 -261 -302 -479 -302 -239 0 -460 141
-569 361 -70 143 -89 232 -84 398 4 120 8 146 35 224 73 207 204 341 384 392
77 21 264 14 342 -14z"/>
<path d="M8250 3439 c-90 -12 -196 -66 -254 -129 -55 -63 -79 -129 -78 -223 1
-58 7 -82 32 -133 53 -109 138 -181 440 -377 139 -90 221 -165 250 -229 23
-51 26 -144 6 -192 -49 -118 -210 -193 -357 -167 -81 14 -143 45 -202 100 -55
51 -93 111 -112 174 -11 37 -16 42 -45 45 -30 3 -32 1 -27 -20 3 -13 15 -96
28 -185 22 -161 22 -163 47 -163 14 0 33 7 42 15 15 14 29 12 141 -15 142 -35
268 -40 364 -15 129 34 241 120 293 225 24 49 27 66 27 160 0 90 -3 112 -23
152 -57 116 -142 190 -407 357 -186 119 -276 202 -299 280 -39 132 40 247 188
271 151 24 317 -64 395 -210 26 -48 37 -60 57 -60 28 0 28 -4 9 136 -24 178
-23 174 -50 174 -13 0 -27 -4 -30 -10 -10 -16 -56 -12 -124 10 -58 20 -183 41
-226 38 -11 0 -49 -4 -85 -9z"/>
<path d="M3755 3420 c-60 -4 -138 -8 -172 -9 -63 -1 -63 -1 -63 -31 l0 -30 63
0 c77 0 126 -23 149 -70 17 -32 18 -82 18 -600 0 -518 -1 -568 -18 -599 -27
-53 -59 -71 -140 -78 -71 -6 -72 -6 -72 -34 l0 -29 340 0 340 0 0 29 c0 28 0
28 -75 34 -92 7 -135 29 -152 77 -8 23 -12 112 -12 255 l-1 220 156 0 156 0
67 -107 c36 -59 95 -156 131 -215 78 -128 119 -172 201 -213 132 -67 175 -73
577 -78 l362 -4 0 30 0 29 -79 5 c-95 6 -140 28 -158 78 -8 23 -12 113 -12
261 l-1 226 138 -5 c299 -10 497 79 585 265 30 64 32 75 32 178 0 104 -2 114
-33 177 -56 114 -161 188 -322 225 -62 15 -121 18 -345 18 -148 -1 -314 -4
-367 -9 l-98 -8 0 -29 0 -29 69 0 c85 0 98 -5 116 -41 13 -24 15 -122 15 -633
0 -352 -4 -615 -9 -629 -20 -52 -140 -61 -237 -18 -60 27 -122 78 -156 127
-43 65 -288 467 -286 469 2 2 31 16 64 33 81 41 158 117 192 189 38 81 43 213
13 294 -55 145 -202 242 -420 274 -101 16 -354 17 -556 5z m476 -64 c132 -28
221 -95 261 -196 32 -81 32 -251 -1 -334 -59 -150 -194 -216 -438 -216 l-93 0
0 380 0 380 103 0 c56 0 132 -7 168 -14z m1442 -6 c88 -27 158 -90 187 -167
80 -214 -16 -460 -208 -534 -63 -24 -176 -35 -246 -25 l-46 7 0 363 c0 199 3
366 7 369 3 4 59 7 124 7 89 0 132 -5 182 -20z"/>
<path d="M6150 3381 c0 -28 2 -29 60 -33 71 -5 109 -29 127 -79 8 -24 12 -154
12 -445 1 -375 3 -417 21 -488 27 -106 63 -169 140 -246 73 -73 149 -117 260
-152 67 -21 94 -23 260 -23 147 0 198 4 250 18 212 58 361 197 426 397 15 48
18 110 23 480 6 403 7 427 26 460 25 42 94 80 147 80 36 0 38 2 38 30 l0 30
-280 0 -280 0 0 -29 c0 -27 2 -28 62 -35 77 -8 118 -31 143 -81 19 -37 20 -64
23 -396 4 -396 -4 -479 -54 -584 -77 -164 -273 -256 -514 -242 -255 16 -409
130 -465 342 -20 79 -22 855 -2 895 22 43 74 70 133 70 53 0 54 0 54 30 l0 30
-305 0 -305 0 0 -29z"/>
<path d="M1097 1530 c-185 -31 -344 -116 -467 -247 -134 -142 -190 -281 -198
-486 -5 -144 5 -214 47 -323 84 -218 284 -384 532 -444 170 -40 349 -36 570
15 59 14 130 25 157 25 l50 0 45 93 c48 98 97 220 97 243 0 9 -11 14 -27 14
-23 -1 -35 -12 -65 -58 -107 -165 -260 -260 -452 -281 -322 -36 -608 175 -702
519 -25 91 -26 310 -1 400 26 96 77 197 135 266 165 199 491 262 734 142 85
-43 194 -153 233 -235 26 -56 33 -63 58 -63 l29 0 -6 78 c-3 42 -9 121 -12
175 l-7 99 -51 -6 c-42 -5 -67 -1 -141 24 -49 17 -128 37 -174 45 -89 16 -302
18 -384 5z"/>
<path d="M6112 1525 c-141 -40 -236 -130 -268 -256 -19 -73 -9 -151 28 -227
28 -57 142 -174 218 -223 269 -176 333 -220 384 -268 76 -73 106 -132 106
-208 -1 -163 -154 -278 -348 -260 -73 7 -169 48 -218 93 -45 41 -99 125 -119
184 -15 45 -20 50 -46 50 -28 0 -29 -1 -24 -37 28 -196 45 -316 45 -324 0 -14
52 -10 72 5 15 11 35 8 130 -17 213 -56 389 -38 527 54 118 79 176 191 170
332 -8 173 -98 280 -400 472 -264 167 -343 251 -343 365 -1 223 328 287 515
99 26 -25 62 -72 79 -103 25 -44 37 -56 56 -56 29 0 29 -9 4 165 -11 77 -20
141 -20 142 0 9 -44 1 -64 -12 -20 -14 -30 -13 -107 11 -106 33 -293 43 -377
19z"/>
<path d="M6800 1531 c0 -9 -27 -279 -34 -343 -4 -36 -3 -38 24 -38 26 0 29 4
44 72 9 40 26 92 37 114 33 69 54 74 298 74 l211 0 0 -606 c0 -531 -2 -610
-16 -639 -21 -46 -73 -65 -174 -65 l-80 0 0 -30 0 -30 375 0 375 0 0 29 0 29
-94 4 c-108 3 -142 20 -163 79 -9 25 -12 196 -12 632 l-1 597 215 0 c255 0
263 -2 301 -85 14 -30 30 -81 36 -115 11 -57 13 -60 41 -60 29 0 30 0 24 48
-4 26 -11 103 -17 172 -15 169 -15 170 -46 170 -14 0 -32 -7 -40 -15 -13 -13
-96 -15 -618 -15 -524 0 -605 2 -616 15 -13 16 -70 21 -70 6z"/>
<path d="M3928 1517 l-208 -10 0 -27 c0 -27 1 -27 77 -33 90 -7 122 -25 141
-82 19 -58 13 -1158 -7 -1197 -22 -44 -58 -61 -138 -66 -73 -5 -73 -5 -73 -33
l0 -29 340 0 340 0 0 29 0 28 -79 5 c-152 9 -161 27 -161 328 l0 220 118 0
c64 0 133 3 152 6 l35 5 61 -98 c34 -54 94 -152 134 -218 85 -140 134 -191
222 -234 126 -61 149 -64 541 -69 l357 -4 0 30 c0 28 -2 29 -57 35 -61 6 -100
29 -120 68 -20 37 -18 1157 1 1203 19 46 49 64 118 72 56 6 58 8 58 35 l0 29
-290 0 -290 0 0 -29 c0 -27 4 -29 46 -36 62 -9 90 -23 111 -54 17 -24 18 -70
21 -591 3 -616 1 -635 -51 -674 -42 -31 -164 -30 -229 2 -57 28 -139 100 -166
145 -10 18 -76 126 -147 240 -70 114 -126 209 -124 211 2 1 31 15 64 31 76 37
158 118 193 192 24 52 27 70 27 163 0 90 -4 112 -24 153 -38 77 -101 139 -183
180 -167 84 -311 97 -810 74z m486 -62 c42 -7 96 -23 120 -33 106 -47 171
-149 182 -285 17 -196 -64 -342 -219 -398 -48 -17 -92 -23 -199 -26 l-138 -5
0 374 c0 206 3 378 7 381 12 12 170 7 247 -8z"/>
<path d="M1950 1482 c0 -25 5 -28 62 -42 110 -27 103 21 106 -644 2 -445 0
-581 -10 -611 -18 -54 -55 -78 -128 -83 -58 -4 -60 -5 -60 -33 l0 -29 300 0
300 0 0 30 c0 29 -2 30 -42 30 -58 0 -109 27 -130 70 -16 31 -18 68 -18 298
l0 262 450 0 450 0 -1 -257 c0 -280 -5 -312 -52 -347 -23 -17 -46 -22 -118
-24 l-89 -4 0 -29 0 -29 340 0 340 0 0 29 c0 28 -1 29 -65 33 -78 5 -114 28
-133 83 -10 29 -12 167 -10 611 3 665 -4 617 106 644 57 14 62 17 62 42 l0 28
-305 0 -305 0 0 -30 c0 -29 1 -30 53 -31 73 -1 126 -19 151 -52 20 -27 21 -42
24 -298 l3 -269 -450 0 -451 0 0 248 c0 138 5 263 10 284 15 51 50 76 121 84
57 6 59 8 59 35 l0 29 -285 0 -285 0 0 -28z"/>
<path d="M8260 1482 c0 -26 4 -29 58 -40 39 -8 67 -21 83 -38 l24 -26 3 -581
c2 -392 0 -594 -8 -619 -8 -29 -20 -41 -53 -57 -24 -12 -58 -21 -75 -21 -29 0
-32 -3 -32 -30 l0 -30 290 0 290 0 0 30 c0 29 -2 30 -42 31 -66 1 -110 21
-133 60 -19 33 -20 52 -20 609 0 448 3 582 13 606 17 40 60 64 127 71 52 6 55
7 55 34 l0 29 -290 0 -290 0 0 -28z"/>
</g>
</svg>
